<?xml version="1.0" encoding="UTF-8" standalone="no"?>
<!DOCTYPE svg PUBLIC "-//W3C//DTD SVG 1.1//EN" "http://www.w3.org/Graphics/SVG/1.1/DTD/svg11.dtd">
<svg width="100%" height="100%" viewBox="0 0 1651 1490" version="1.1" xmlns="http://www.w3.org/2000/svg" xmlns:xlink="http://www.w3.org/1999/xlink" xml:space="preserve" xmlns:serif="http://www.serif.com/" style="fill-rule:evenodd;clip-rule:evenodd;stroke-linejoin:round;stroke-miterlimit:2;">
    <g transform="matrix(1,0,0,1,-13993.1,-15060.6)">
        <g transform="matrix(4.16667,0,0,4.16667,13731.3,14648.8)">
            <g transform="matrix(1,0,0,1,432.62,282.751)">
                <path d="M0,0.005L0.003,0.005C0.012,0 0.009,0.001 0,0.005" style="fill:white;fill-rule:nonzero;"/>
            </g>
        </g>
        <g transform="matrix(4.16667,0,0,4.16667,13731.3,14648.8)">
            <g transform="matrix(1,0,0,1,100.311,367.533)">
                <path d="M0,59.867C0,68.095 -3.447,71.054 -9.207,71.054L-19.405,71.054L-19.405,-11.194L-9.207,-11.194C-3.447,-11.194 0,-8.234 0,-0.007L0,59.867ZM-8.874,-27.632L-37.498,-27.632L-37.498,87.499L-8.874,87.499C9.219,87.499 18.093,77.475 18.093,59.046L18.093,0.821C18.093,-17.608 9.219,-27.632 -8.874,-27.632" style="fill:white;fill-rule:nonzero;"/>
            </g>
        </g>
        <g transform="matrix(4.16667,0,0,4.16667,13731.3,14648.8)">
            <g transform="matrix(1,0,0,1,165.46,410.465)">
                <path d="M0,-25.998C0,-17.778 -3.126,-15.137 -8.885,-15.137L-17.437,-15.137L-17.437,-54.126L-8.885,-54.126C-3.126,-54.126 0,-51.492 0,-43.266L0,-25.998ZM-8.885,-70.564L-35.53,-70.564L-35.53,44.566L-17.437,44.566L-17.437,1.316L-8.885,1.316C9.207,1.316 18.085,-8.716 18.085,-27.152L18.085,-42.111C18.085,-60.54 9.207,-70.564 -8.885,-70.564" style="fill:white;fill-rule:nonzero;"/>
            </g>
        </g>
        <g transform="matrix(4.16667,0,0,4.16667,13731.3,14648.8)">
            <g transform="matrix(1,0,0,1,191.617,438.593)">
                <path d="M0,-82.254L32.729,-82.254L-1.643,0.325L-1.643,16.438L51.321,16.438L51.321,-0.007L16.937,-0.007L51.321,-82.579L51.321,-98.692L0,-98.692L0,-82.254Z" style="fill:white;fill-rule:nonzero;"/>
            </g>
        </g>
        <g transform="matrix(4.16667,0,0,4.16667,13731.3,14648.8)">
            <g transform="matrix(1,0,0,1,0,99.839)">
                <rect x="208.888" y="218.169" width="15.795" height="15.796" style="fill:white;"/>
            </g>
        </g>
        <g transform="matrix(4.16667,0,0,4.16667,13731.3,14648.8)">
            <g transform="matrix(1,0,0,1,335.402,453.389)">
                <path d="M0,-111.868L-12.511,0L-33.574,0L-39.98,-59.881L-41.631,-75.18L-43.272,-59.881L-49.688,0L-71.564,0L-84.07,-111.868L-69.759,-111.868L-60.207,-22.534L-58.409,-6.421L-56.916,-22.534L-48.363,-111.868L-33.892,-111.868L-25.007,-21.883L-23.364,-5.599L-21.714,-21.883L-12.511,-111.868L0,-111.868ZM-23.364,-22.046L-32.42,-113.511L-49.85,-113.511L-58.572,-22.705L-68.275,-113.511L-85.876,-113.511L-73.048,1.643L-48.207,1.643L-41.631,-59.711L-35.046,1.643L-11.023,1.643L1.805,-113.511L-13.983,-113.511L-23.364,-22.046Z" style="fill:white;fill-rule:nonzero;"/>
            </g>
        </g>
        <g transform="matrix(4.16667,0,0,4.16667,13731.3,14648.8)">
            <g transform="matrix(1,0,0,1,370.433,340.21)">
                <path d="M0,114.49C-16.883,114.49 -25.339,105.397 -25.339,87.183L-25.339,81.753L-11.512,81.753L-11.512,88.337C-11.512,96.889 -7.843,101.166 -0.495,101.166C6.858,101.166 10.535,96.889 10.535,88.337C10.535,83.624 9.321,79.289 6.902,75.338C4.499,71.394 1.562,67.858 -1.887,64.729C-5.342,61.599 -8.826,58.418 -12.34,55.192C-15.847,51.952 -18.806,47.942 -21.226,43.185C-23.63,38.414 -24.836,33.116 -24.836,27.308C-24.836,9.101 -16.513,0.002 0.163,0.002C16.839,0.002 25.169,9.101 25.169,27.308L25.169,29.284L11.349,29.284L11.349,26.154C11.349,17.491 7.79,13.163 0.666,13.163C-6.474,13.163 -10.032,17.491 -10.032,26.154C-10.032,30.097 -9.159,33.834 -7.406,37.341C-5.652,40.847 -3.455,43.836 -0.821,46.307C1.812,48.771 4.632,51.494 7.65,54.453C10.668,57.404 13.495,60.267 16.121,63.005C18.755,65.743 20.945,69.235 22.698,73.452C24.458,77.668 25.332,82.248 25.332,87.183C25.332,105.397 16.891,114.49 0,114.49M19.909,64.729C17.822,61.939 15.544,59.299 13.072,56.835C10.608,54.372 8.116,52.011 5.593,49.762C3.07,47.513 0.77,45.242 -1.317,42.933C-3.403,40.64 -5.098,38.058 -6.414,35.202C-7.724,32.346 -8.382,29.336 -8.382,26.154C-8.382,18.594 -5.379,14.799 0.666,14.799C6.688,14.799 9.706,18.594 9.706,26.154L9.706,30.933L26.818,30.933L26.818,27.308C26.818,17.979 24.569,10.825 20.063,5.831C15.573,0.852 8.938,-1.649 0.163,-1.649C-8.611,-1.649 -15.24,0.852 -19.738,5.831C-24.244,10.825 -26.479,17.979 -26.479,27.308C-26.479,33.331 -25.272,38.857 -22.868,43.836C-20.448,48.83 -17.497,52.995 -13.982,56.34C-10.476,59.691 -6.991,62.894 -3.536,65.965C-0.081,69.042 2.849,72.46 5.268,76.256C7.679,80.037 8.886,84.06 8.886,88.337C8.886,95.795 5.756,99.53 -0.495,99.53C-6.747,99.53 -9.861,95.795 -9.861,88.337L-9.861,80.117L-26.981,80.117L-26.981,87.183C-26.981,96.511 -24.673,103.666 -20.071,108.66C-15.455,113.638 -8.774,116.139 0,116.139C8.774,116.139 15.462,113.638 20.063,108.66C24.681,103.666 26.981,96.511 26.981,87.183C26.981,82.692 26.323,78.527 24.999,74.687C23.689,70.847 21.98,67.533 19.909,64.729" style="fill:white;fill-rule:nonzero;"/>
            </g>
        </g>
        <g transform="matrix(4.16667,0,0,4.16667,13731.3,14648.8)">
            <g transform="matrix(1,0,0,1,431.964,340.21)">
                <path d="M0,114.49C-16.89,114.49 -25.339,105.397 -25.339,87.183L-25.339,81.753L-11.519,81.753L-11.519,88.337C-11.519,96.889 -7.85,101.166 -0.495,101.166C6.844,101.166 10.528,96.889 10.528,88.337C10.528,83.624 9.314,79.289 6.91,75.338C4.491,71.394 1.562,67.858 -1.901,64.729C-5.349,61.599 -8.833,58.418 -12.34,55.192C-15.847,51.952 -18.821,47.942 -21.226,43.185C-23.645,38.414 -24.843,33.116 -24.843,27.308C-24.843,9.101 -16.513,0.002 0.163,0.002C16.839,0.002 25.169,9.101 25.169,27.308L25.169,29.284L11.349,29.284L11.349,26.154C11.349,17.491 7.775,13.163 0.651,13.163C-6.48,13.163 -10.047,17.491 -10.047,26.154C-10.047,30.097 -9.159,33.834 -7.405,37.341C-5.645,40.847 -3.462,43.836 -0.821,46.307C1.798,48.771 4.617,51.494 7.65,54.453C10.669,57.404 13.487,60.267 16.113,63.005C18.755,65.743 20.945,69.235 22.698,73.452C24.451,77.668 25.332,82.248 25.332,87.183C25.332,105.397 16.891,114.49 0,114.49M24.999,74.687C23.683,70.847 21.98,67.533 19.901,64.729C17.823,61.939 15.544,59.299 13.072,56.835C10.608,54.372 8.108,52.011 5.593,49.762C3.063,47.513 0.771,45.242 -1.316,42.933C-3.403,40.64 -5.104,38.058 -6.421,35.202C-7.738,32.346 -8.396,29.336 -8.396,26.154C-8.396,18.594 -5.379,14.799 0.651,14.799C6.688,14.799 9.706,18.594 9.706,26.154L9.706,30.933L26.804,30.933L26.804,27.308C26.804,17.979 24.562,10.825 20.063,5.831C15.565,0.852 8.938,-1.649 0.163,-1.649C-8.618,-1.649 -15.247,0.852 -19.738,5.831C-24.244,10.825 -26.493,17.979 -26.493,27.308C-26.493,33.331 -25.287,38.857 -22.875,43.836C-20.464,48.83 -17.504,52.995 -13.99,56.34C-10.482,59.691 -6.991,62.894 -3.544,65.965C-0.081,69.042 2.849,72.46 5.26,76.256C7.672,80.037 8.87,84.06 8.87,88.337C8.87,95.795 5.756,99.53 -0.495,99.53C-6.74,99.53 -9.869,95.795 -9.869,88.337L-9.869,80.117L-26.981,80.117L-26.981,87.183C-26.981,96.511 -24.673,103.666 -20.071,108.66C-15.47,113.638 -8.781,116.139 0,116.139C8.76,116.139 15.463,113.638 20.063,108.66C24.666,103.666 26.975,96.511 26.975,87.183C26.975,82.692 26.323,78.527 24.999,74.687" style="fill:white;fill-rule:nonzero;"/>
            </g>
        </g>
        <g transform="matrix(4.16667,0,0,4.16667,13731.3,14648.8)">
            <g transform="matrix(1,0,0,1,310.075,158.248)">
                <path d="M0,95.984C-0.37,95.811 -0.738,95.636 -1.109,95.464C12.216,85.337 22.379,70.867 26.902,53.448C37.652,12.114 12.765,-30.248 -28.562,-40.983C-69.896,-51.719 -112.267,-26.846 -123.009,14.497C-129.694,40.25 -122.519,66.349 -106.179,84.984C-106.563,85.093 -106.951,85.2 -107.332,85.31C-110.43,81.745 -113.241,77.89 -115.688,73.727C-126.308,55.653 -129.261,34.531 -123.984,14.237C-118.706,-6.041 -105.859,-23.058 -87.797,-33.681C-69.723,-44.29 -48.604,-47.235 -28.303,-41.967C-8.039,-36.7 8.984,-23.841 19.601,-5.767C30.217,12.299 33.154,33.414 27.887,53.692C23.462,70.714 13.695,85.42 0,95.984M-20.579,84.38C-21.54,85.204 -22.518,85.985 -23.51,86.724C-28.974,84.962 -34.53,83.463 -40.185,82.442C-42.808,81.797 -45.516,81.48 -48.183,81.088C-50.86,80.755 -53.498,80.282 -56.165,80.193C-58.821,80.03 -61.459,79.86 -64.089,79.705C-66.704,79.572 -69.323,79.778 -71.901,79.8C-77.061,79.879 -82.086,80.338 -86.954,81.025C-91.022,76.29 -94.277,70.861 -96.581,64.627C-97.847,61.209 -99.63,59.189 -103.573,60.166C-106.521,49.438 -109.869,38.985 -101.68,28.568C-96.664,38.031 -90.885,46.25 -82.67,52.53C-89.602,58.361 -87.597,67.416 -78.741,71.64C-76,61.076 -73.078,50.57 -70.576,39.962C-69.293,34.457 -66.767,29.915 -62.432,26.392C-57.7,22.56 -53.831,18.255 -53.75,11.189L-86.823,2.599C-81.93,-2.083 -76.525,-4.103 -70.976,-5.797C-66.293,-7.255 -65.724,-6.648 -66.867,-1.639C-62.095,-0.397 -57.278,0.765 -52.514,2.141C-50.509,2.717 -49.644,2.133 -49.015,0.247C-46.999,-5.997 -44.853,-12.197 -42.785,-18.433C-42.504,-19.306 -42.05,-20.483 -42.404,-21.149C-43.739,-23.701 -42.464,-25.573 -41.25,-27.592C-40.747,-28.421 -40.244,-29.456 -40.281,-30.382C-40.378,-32.69 -39.09,-33.319 -37.3,-32.897C-35.265,-32.416 -33.238,-31.906 -31.203,-31.372C-31.159,-31.358 -31.122,-31.351 -31.085,-31.344C-31.019,-31.329 -30.996,-31.314 -30.937,-31.299C-28.91,-30.782 -26.897,-30.234 -24.886,-29.664C-23.117,-29.168 -22.311,-27.985 -23.509,-26.017C-23.998,-25.247 -24.05,-24.093 -24.012,-23.117C-23.931,-20.757 -23.738,-18.5 -26.143,-16.91C-26.765,-16.502 -26.949,-15.26 -27.134,-14.357C-28.362,-7.913 -29.502,-1.448 -30.774,4.99C-31.151,6.935 -30.671,7.868 -28.659,8.34C-23.82,9.458 -19.048,10.797 -14.276,12.04C-12.849,7.098 -12.05,6.846 -8.646,10.39C-4.644,14.57 -0.915,18.979 1.104,25.431L-31.973,16.848C-35.347,23.056 -34.052,28.701 -31.795,34.345C-29.716,39.532 -29.738,44.74 -31.27,50.171C-34.259,60.654 -36.826,71.255 -39.579,81.821C-29.791,82.442 -23.62,75.503 -26.838,67.046C-16.614,65.551 -7.552,61.179 1.437,55.349C3.517,68.437 -4.503,75.946 -12.293,83.877C-15.253,81.118 -17.806,82.005 -20.579,84.38M101.654,155.033C102.55,154.819 103.43,154.605 104.296,154.405C106.02,153.967 107.685,153.54 109.305,153.132C112.485,152.2 115.342,150.979 117.96,149.944C120.579,148.923 122.792,147.487 124.856,146.473C129.013,144.505 131.788,142.02 133.822,140.725C135.776,139.291 136.818,138.513 136.818,138.513C136.818,138.513 135.546,138.795 133.156,139.297C130.789,139.794 127.43,140.77 123.058,141.346C118.752,142.161 113.492,142.546 107.654,142.693C106.197,142.656 104.695,142.612 103.149,142.56C102.395,142.546 101.618,142.538 100.833,142.515C100.057,142.412 99.258,142.301 98.459,142.205C96.868,142.012 95.248,141.821 93.591,141.628C91.955,141.28 90.283,140.918 88.582,140.547C81.813,138.987 74.711,136.633 67.394,133.12C60.054,129.717 52.448,125.477 44.488,120.809C36.505,116.096 28.16,110.94 19.261,105.983C17.285,104.857 15.273,103.746 13.237,102.649C13.262,102.462 13.281,102.272 13.29,102.077C13.497,97.327 16.064,94.685 20.896,94.279C24.683,93.968 26.644,91.475 26.052,87.754C25.349,83.137 27.398,79.926 31.845,78.639C35.544,77.596 36.964,74.806 35.662,71.241C33.99,66.625 35.196,63.346 39.442,61.024C42.823,59.174 43.607,56.215 41.581,52.974C38.977,48.817 39.494,45.362 43.187,42.203C46.071,39.717 46.212,36.588 43.526,33.88C40.233,30.58 40.005,26.748 42.847,23.108C45.214,20.075 44.688,16.937 41.44,14.793C37.557,12.225 36.571,8.541 38.651,4.382C40.257,1.128 39.109,-1.987 35.772,-3.319C31.009,-5.243 29.484,-8.172 30.661,-13.196C31.489,-16.665 29.484,-19.647 25.934,-19.921C21.731,-20.239 18.765,-24.182 19.061,-28.074C19.356,-32.187 17.07,-34.362 12.942,-34.14C8.614,-33.917 5.507,-36.381 4.745,-40.599C4.013,-44.719 1.437,-46.347 -2.676,-45.282C-6.768,-44.224 -10.304,-45.962 -11.887,-49.869C-13.529,-53.909 -16.267,-54.922 -20.165,-52.947C-23.879,-51.081 -27.682,-52.052 -30.049,-55.454C-32.697,-59.249 -35.354,-59.626 -39.023,-56.72C-42.071,-54.308 -46.126,-54.486 -48.956,-57.156C-52.311,-60.337 -55.1,-60.182 -58.021,-56.683C-60.519,-53.671 -64.499,-52.984 -67.81,-54.995C-71.924,-57.467 -74.479,-56.763 -76.677,-52.554C-78.53,-48.989 -82.644,-47.516 -86.372,-49.092C-89.843,-50.579 -93.012,-48.936 -93.944,-45.156C-94.999,-40.91 -98.42,-38.646 -102.712,-39.334C-106.592,-39.955 -109.129,-37.943 -109.392,-34.021C-109.714,-29.287 -112.259,-26.697 -116.964,-26.342C-120.774,-26.046 -122.73,-23.605 -122.177,-19.862C-121.466,-15.06 -123.401,-12.035 -128.043,-10.68C-131.635,-9.629 -133.093,-6.722 -131.746,-3.222C-130.052,1.239 -131.295,4.627 -135.448,6.883C-138.978,8.785 -139.729,11.752 -137.542,15.162C-135.075,19.031 -135.659,22.715 -139.188,25.66C-142.155,28.131 -142.313,31.349 -139.606,34.087C-136.281,37.445 -136.07,41.108 -138.948,44.837C-141.341,47.921 -140.823,50.977 -137.542,53.152C-133.699,55.69 -132.707,59.255 -134.705,63.414C-136.44,67.061 -135.205,70.057 -131.413,71.411C-127.455,72.832 -125.517,76.575 -126.63,80.652C-127.644,84.38 -125.827,87.369 -122.217,87.865C-120.859,88.053 -119.697,88.434 -118.727,88.987C-121.1,89.88 -123.405,90.795 -125.646,91.668C-129.367,93.05 -132.719,94.856 -135.97,96.41C-139.166,98.059 -142.255,99.399 -145.003,101.152C-150.5,104.46 -155.335,107.255 -158.928,109.941C-162.615,112.508 -165.404,114.757 -167.35,116.192C-169.277,117.68 -170.291,118.486 -170.291,118.486C-170.291,118.486 -169.032,118.175 -166.677,117.59C-164.343,116.932 -160.862,116.126 -156.56,114.802C-152.258,113.412 -146.92,112.508 -141.083,110.903C-138.182,110.089 -134.957,109.534 -131.628,108.832C-128.275,108.225 -124.876,107.212 -121.196,106.797C-117.534,106.294 -113.794,105.502 -109.892,105.05C-105.981,104.733 -101.997,104.133 -97.888,103.86C-89.672,103.438 -81.108,103.171 -72.382,103.963C-63.648,104.473 -54.812,106.19 -45.944,108.285C-43.739,108.876 -41.523,109.467 -39.305,110.059C-37.107,110.807 -34.902,111.547 -32.683,112.227C-30.448,112.856 -28.273,113.803 -26.069,114.594C-23.864,115.416 -21.659,116.245 -19.478,117.244C-10.644,120.75 -1.958,125.092 6.838,129.421C15.591,133.815 24.416,138.24 33.332,142.331C42.269,146.407 51.369,149.944 60.438,152.489C69.465,155.1 78.631,156.292 86.977,156.321C89.077,156.269 91.119,156.255 93.087,156.158C95.077,155.907 97.016,155.663 98.896,155.425C99.827,155.293 100.744,155.16 101.654,155.033" style="fill:white;fill-rule:nonzero;"/>
            </g>
        </g>
        <g transform="matrix(4.16667,0,0,4.16667,13731.3,14648.8)">
            <g transform="matrix(1,0,0,1,344.065,286.285)">
                <path d="M0,-27.173C-4.343,-28.498 -6.858,-29.111 -6.858,-29.111C-6.858,-29.111 2.138,-24.088 15.632,-16.572C22.343,-12.791 30.155,-8.374 38.789,-3.869C43.14,-1.679 47.719,0.512 52.564,2.509C57.389,4.507 62.56,6.163 68.049,7.155C73.517,8.102 79.405,8.257 84.983,6.94C86.396,6.651 87.766,6.208 89.112,5.771C89.793,5.556 90.422,5.261 91.072,5.002L92.042,4.602L92.419,4.425L92.516,4.38L92.73,4.269L93.137,4.048C93.439,3.87 93.603,3.818 94.032,3.537L95.201,2.745C96.007,2.198 96.48,1.673 97.109,1.118C98.257,-0.015 99.218,-1.257 99.979,-2.574C103.006,-7.85 103.664,-13.605 102.71,-18.717C101.726,-23.815 99.1,-28.408 95.467,-31.221C91.827,-34.017 87.773,-35.186 84.362,-35.281C80.959,-35.43 78.081,-34.972 75.854,-34.298C73.598,-33.685 71.926,-33.003 70.815,-32.478C69.699,-31.96 69.122,-31.679 69.122,-31.679C69.122,-31.679 69.766,-31.761 70.979,-31.894C72.17,-32.07 73.945,-32.204 76.143,-32.256C78.34,-32.315 81.003,-32.115 83.778,-31.404C86.56,-30.665 89.43,-29.29 91.575,-26.922C93.677,-24.562 95.164,-21.321 95.394,-17.674C95.674,-14.086 94.897,-10.061 92.811,-7.116C92.301,-6.384 91.717,-5.74 91.103,-5.163C90.791,-4.935 90.422,-4.549 90.192,-4.431C90.059,-4.358 89.94,-4.276 89.814,-4.187C89.748,-4.106 89.319,-3.928 89.09,-3.81L88.669,-3.595L88.541,-3.528L88.521,-3.528L87.75,-3.233C87.232,-3.055 86.737,-2.825 86.212,-2.663C85.177,-2.338 84.133,-2.019 83.053,-1.812C78.77,-0.865 74.175,-0.895 69.506,-1.65C64.86,-2.366 60.162,-3.81 55.539,-5.378C50.915,-6.999 46.38,-8.862 42.008,-10.749C37.591,-12.562 33.321,-14.419 29.253,-16.165C25.191,-17.911 21.292,-19.457 17.689,-20.907C14.087,-22.349 10.734,-23.541 7.761,-24.607C4.794,-25.679 2.16,-26.478 0,-27.173" style="fill:white;fill-rule:nonzero;"/>
            </g>
        </g>
        <g transform="matrix(4.16667,0,0,4.16667,13731.3,14648.8)">
            <g transform="matrix(0.0791141,-0.996866,-0.996866,-0.0791141,243.079,157.566)">
                <path d="M-156.073,-124.065C-143.515,-109.22 -110.011,-43.508 -114.761,15.201C-119.419,72.686 -156.222,101.764 -156.073,167.223C-181.841,107.011 -157.323,55.507 -145.728,15.549C-125.101,-55.562 -156.073,-124.065 -156.073,-124.065" style="fill:white;fill-rule:nonzero;"/>
            </g>
        </g>
    </g>
</svg>
