<?xml version="1.0" standalone="no"?>
<!DOCTYPE svg PUBLIC "-//W3C//DTD SVG 20010904//EN"
 "http://www.w3.org/TR/2001/REC-SVG-20010904/DTD/svg10.dtd">
<svg version="1.0" xmlns="http://www.w3.org/2000/svg"
 width="553.000000pt" height="553.000000pt" viewBox="0 0 553.000000 553.000000"
 preserveAspectRatio="xMidYMid meet">
<metadata>
Created by potrace 1.11, written by Peter Selinger 2001-2013
</metadata>
<g transform="translate(0.000000,553.000000) scale(0.100000,-0.100000)"
fill="#000000" stroke="none">
<path d="M3010 5506 c-25 -7 -67 -29 -95 -50 -60 -46 -86 -57 -147 -60 -52 -3
-112 22 -178 75 -54 43 -126 51 -173 19 -17 -12 -43 -37 -57 -55 -68 -90 -166
-121 -267 -84 -32 11 -76 28 -98 36 -33 12 -47 12 -80 3 -48 -14 -64 -31 -111
-110 -40 -68 -98 -116 -153 -126 -20 -4 -65 -2 -101 5 -154 30 -212 1 -243
-117 -17 -69 -61 -133 -110 -161 -35 -21 -57 -25 -134 -27 -59 -2 -102 -8
-121 -18 -46 -24 -72 -75 -78 -151 -6 -76 -16 -107 -50 -153 -31 -40 -84 -68
-149 -77 -64 -10 -117 -37 -141 -72 -16 -24 -19 -47 -19 -150 0 -119 -1 -122
-30 -165 -24 -33 -50 -53 -118 -88 -57 -29 -95 -56 -108 -75 -24 -39 -24 -103
1 -175 44 -124 9 -215 -108 -286 -15 -8 -40 -32 -55 -52 -40 -52 -35 -123 16
-207 67 -112 56 -195 -38 -296 -49 -53 -65 -84 -65 -130 0 -33 32 -104 53
-116 29 -17 85 -104 92 -141 8 -49 -9 -115 -43 -167 -60 -93 -58 -170 8 -227
21 -18 56 -48 79 -66 80 -64 99 -142 61 -249 -11 -32 -20 -77 -20 -101 0 -67
24 -98 108 -139 147 -71 176 -117 168 -274 -4 -81 -2 -107 10 -128 25 -42 73
-69 147 -82 122 -21 191 -98 200 -224 4 -64 16 -95 51 -134 30 -34 62 -43 139
-42 151 3 200 -37 262 -211 32 -92 102 -127 200 -101 136 37 234 -4 293 -123
25 -49 84 -103 115 -105 50 -4 75 2 132 28 46 22 75 28 125 28 74 0 113 -20
165 -86 73 -93 140 -109 228 -54 115 71 131 78 181 81 59 2 105 -14 159 -57
104 -84 184 -74 268 33 72 90 181 109 303 52 99 -45 163 -31 213 47 65 101 90
130 132 150 47 22 116 26 171 9 19 -5 56 -10 81 -10 75 0 117 47 149 163 16
60 84 132 139 147 21 5 66 9 102 9 128 -2 181 44 194 167 17 159 67 210 239
240 48 8 101 54 116 99 7 22 9 59 4 102 -9 85 -8 105 10 147 19 46 51 73 143
121 122 63 145 117 103 240 -24 69 -26 129 -6 177 17 39 67 93 107 114 15 7
41 31 58 53 35 44 42 106 17 151 -7 14 -26 47 -40 74 -56 103 -42 184 48 280
83 88 84 165 2 255 -61 67 -77 97 -83 154 -5 48 -1 60 42 141 41 79 47 96 43
136 -5 52 -29 90 -71 115 -125 74 -164 179 -116 305 41 107 4 200 -90 231 -70
23 -123 66 -151 119 -22 44 -25 76 -16 166 6 56 4 78 -7 100 -31 59 -52 73
-138 95 -100 25 -129 39 -163 79 -28 34 -43 79 -51 159 -7 72 -30 116 -72 142
-30 19 -50 22 -121 22 -68 0 -93 4 -124 21 -63 33 -103 84 -126 163 -38 124
-97 158 -217 126 -129 -34 -222 5 -280 117 -61 118 -139 144 -256 85 -114 -58
-221 -32 -304 74 -24 31 -68 63 -105 77 -3 1 -25 -4 -50 -10z m0 -440 c78 -10
188 -28 250 -42 14 -3 34 -7 46 -9 11 -3 66 -18 122 -35 473 -140 895 -437
1193 -837 245 -328 390 -692 445 -1118 16 -119 9 -504 -10 -600 -2 -11 -7 -40
-11 -65 -36 -226 -138 -513 -256 -723 -115 -204 -224 -345 -403 -522 -196
-195 -382 -327 -620 -441 -197 -94 -416 -164 -606 -194 -41 -6 -86 -13 -100
-16 -143 -23 -425 -22 -600 1 -80 11 -99 15 -190 34 -242 50 -559 183 -770
322 -344 227 -631 549 -813 914 -64 130 -149 363 -172 473 -2 9 -8 37 -14 62
-20 89 -35 186 -46 305 -6 67 -7 314 -1 360 2 17 7 62 12 100 4 39 8 72 9 75
0 3 4 26 8 51 14 82 18 103 38 179 104 395 321 776 603 1055 279 276 599 470
961 581 89 27 85 26 211 53 111 23 146 28 249 37 44 4 81 8 83 9 5 5 335 -4
382 -9z"/>
<path d="M2677 4954 c-1 -1 -42 -5 -92 -9 -49 -3 -101 -8 -115 -10 -14 -2 -41
-7 -60 -10 -216 -35 -440 -108 -637 -209 -94 -48 -248 -139 -263 -156 -3 -3
-41 -32 -85 -64 -109 -81 -327 -301 -412 -416 -290 -394 -435 -822 -437 -1295
-1 -148 9 -328 19 -345 1 -3 6 -27 9 -55 20 -153 115 -437 203 -610 217 -423
572 -777 983 -977 243 -119 489 -191 730 -215 96 -10 405 -10 490 -1 644 74
1216 424 1581 968 90 134 198 354 248 504 23 71 44 136 46 145 2 9 10 48 19
86 8 39 18 86 20 105 3 19 8 46 11 60 27 134 25 477 -4 650 -18 105 -22 125
-37 185 -83 327 -236 628 -454 890 -67 81 -266 269 -360 338 -216 163 -465
287 -713 356 -43 13 -87 24 -98 26 -12 2 -28 6 -37 9 -9 3 -32 8 -49 11 -18 3
-46 7 -63 10 -71 12 -89 14 -165 21 -72 6 -274 12 -278 8z m318 -308 c20 -20
22 -29 15 -61 -6 -27 -3 -57 10 -107 20 -78 17 -121 -12 -158 -18 -23 -19 -34
-13 -135 18 -278 27 -409 30 -430 1 -11 3 -41 4 -67 1 -33 7 -54 21 -68 18
-18 34 -19 253 -18 l234 0 1 41 c3 56 10 75 31 82 26 8 61 -9 181 -89 112 -76
218 -173 267 -246 l31 -45 -480 0 c-446 0 -480 -1 -489 -17 -16 -29 -11 -168
7 -228 22 -73 45 -118 116 -221 65 -96 89 -147 114 -235 15 -52 17 -126 18
-594 l1 -535 30 3 c37 3 141 54 175 85 90 80 124 191 93 299 -9 29 -22 62 -29
73 -8 11 -14 22 -14 26 0 4 37 25 83 47 162 80 333 208 500 375 l97 98 15 -34
c39 -94 54 -265 30 -362 -27 -115 -69 -213 -162 -377 l-54 -96 -32 12 c-76 30
-126 2 -218 -120 -214 -284 -471 -460 -859 -584 -58 -19 -132 -51 -165 -71
-58 -37 -61 -37 -85 -22 -61 41 -113 64 -225 101 -144 48 -202 72 -317 132
-191 98 -383 262 -513 435 -68 93 -89 113 -131 131 -29 12 -84 7 -112 -10 -20
-12 -156 245 -204 387 -48 143 -47 314 3 441 7 17 14 32 15 34 1 2 49 -43 106
-100 171 -170 331 -290 496 -370 45 -22 82 -43 82 -47 0 -3 -6 -15 -14 -26
-45 -65 -53 -189 -17 -269 35 -80 153 -168 254 -190 23 -6 27 -3 28 16 1 13 2
255 3 538 2 391 5 527 16 565 21 80 65 171 126 257 90 128 125 224 124 336 -1
66 -4 94 -12 107 -4 7 -178 10 -482 10 -331 0 -476 3 -476 10 0 19 107 142
168 192 104 87 259 183 295 183 20 0 37 -37 40 -90 l2 -35 229 -2 c127 -1 237
2 246 7 20 11 27 41 35 165 3 50 8 117 10 150 26 329 26 354 0 409 -26 54 -26
80 0 168 7 25 12 48 11 50 -2 1 -6 18 -9 36 -6 27 -2 38 17 57 24 24 26 24
231 24 203 0 207 0 230 -23z"/>
</g>
</svg>
